<svg width="20" height="17" viewBox="0 0 20 17" fill="none" xmlns="http://www.w3.org/2000/svg">
<path d="M18.6 8.66211L20 10.0721L13.47 16.6621L10 13.1621L11.4 11.7521L13.47 13.8321L18.6 8.66211ZM7.5 13.1621L10.5 16.1621H0.5V14.1621C0.5 11.9521 4.08 10.1621 8.5 10.1621L10.39 10.2721L7.5 13.1621ZM8.5 0.162109C9.56087 0.162109 10.5783 0.583537 11.3284 1.33368C12.0786 2.08383 12.5 3.10124 12.5 4.16211C12.5 5.22298 12.0786 6.24039 11.3284 6.99054C10.5783 7.74068 9.56087 8.16211 8.5 8.16211C7.43913 8.16211 6.42172 7.74068 5.67157 6.99054C4.92143 6.24039 4.5 5.22298 4.5 4.16211C4.5 3.10124 4.92143 2.08383 5.67157 1.33368C6.42172 0.583537 7.43913 0.162109 8.5 0.162109Z" fill="black"/>
</svg>
