<svg width="23" height="26" viewBox="0 0 23 26" fill="none" xmlns="http://www.w3.org/2000/svg">
<path d="M20.25 2.66211H15.025C14.5 1.21211 13.125 0.162109 11.5 0.162109C9.875 0.162109 8.5 1.21211 7.975 2.66211H2.75C2.08696 2.66211 1.45107 2.9255 0.982233 3.39434C0.513392 3.86318 0.25 4.49907 0.25 5.16211V22.6621C0.25 23.3252 0.513392 23.961 0.982233 24.4299C1.45107 24.8987 2.08696 25.1621 2.75 25.1621H20.25C20.913 25.1621 21.5489 24.8987 22.0178 24.4299C22.4866 23.961 22.75 23.3252 22.75 22.6621V5.16211C22.75 4.49907 22.4866 3.86318 22.0178 3.39434C21.5489 2.9255 20.913 2.66211 20.25 2.66211ZM11.5 2.66211C11.8315 2.66211 12.1495 2.79381 12.3839 3.02823C12.6183 3.26265 12.75 3.58059 12.75 3.91211C12.75 4.24363 12.6183 4.56157 12.3839 4.79599C12.1495 5.03041 11.8315 5.16211 11.5 5.16211C11.1685 5.16211 10.8505 5.03041 10.6161 4.79599C10.3817 4.56157 10.25 4.24363 10.25 3.91211C10.25 3.58059 10.3817 3.26265 10.6161 3.02823C10.8505 2.79381 11.1685 2.66211 11.5 2.66211ZM5.25 7.66211H17.75V5.16211H20.25V22.6621H2.75V5.16211H5.25V7.66211ZM5.875 15.7871L7.75 13.9121L10.25 16.4121L15.875 10.7871L17.75 12.6621L10.25 20.1621L5.875 15.7871Z" fill="black"/>
</svg>
