<svg width="56" height="57" viewBox="0 0 56 57" fill="none" xmlns="http://www.w3.org/2000/svg">
<path d="M45.5252 53.6877H10.9194C7.08035 53.6877 3.95667 50.5649 3.95667 46.7252C3.95667 42.8856 7.08035 39.7622 10.9194 39.7622H45.5252C49.3643 39.7622 52.4888 42.8856 52.4888 46.7252C52.4888 50.5649 49.3643 53.6877 45.5252 53.6877ZM10.9194 42.357C8.50919 42.357 6.55115 44.3161 6.55115 46.7252C6.55115 49.1335 8.50919 51.0949 10.9194 51.0949H45.5252C47.9351 51.0949 49.8943 49.1332 49.8943 46.7252C49.8943 44.3161 47.9354 42.357 45.5252 42.357H10.9194Z" fill="#5A5756"/>
<path d="M12.9099 46.7248C12.9099 45.709 12.0873 44.8872 11.0723 44.8872C10.0573 44.8872 9.23547 45.709 9.23547 46.7248C9.23547 47.7412 10.0576 48.563 11.0723 48.563C12.0873 48.563 12.9099 47.7412 12.9099 46.7248Z" fill="#5A5756"/>
<path d="M21.4841 46.7248C21.4841 45.709 20.6609 44.8872 19.6473 44.8872C18.6331 44.8872 17.8099 45.709 17.8099 46.7248C17.8099 47.7412 18.6329 48.563 19.6473 48.563C20.6612 48.563 21.4841 47.7412 21.4841 46.7248Z" fill="#5A5756"/>
<path d="M30.0592 46.7248C30.0592 45.709 29.2362 44.8872 28.2221 44.8872C27.2071 44.8872 26.385 45.709 26.385 46.7248C26.385 47.7412 27.2071 48.563 28.2221 48.563C29.2362 48.563 30.0592 47.7412 30.0592 46.7248Z" fill="#5A5756"/>
<path d="M38.6341 46.7248C38.6341 45.709 37.8106 44.8872 36.7967 44.8872C35.7829 44.8872 34.9583 45.709 34.9583 46.7248C34.9583 47.7412 35.7829 48.563 36.7967 48.563C37.8106 48.563 38.6341 47.7412 38.6341 46.7248Z" fill="#5A5756"/>
<path d="M47.2089 46.7248C47.2089 45.709 46.3862 44.8872 45.3715 44.8872C44.3565 44.8872 43.5333 45.709 43.5333 46.7248C43.5333 47.7412 44.3565 48.563 45.3715 48.563C46.3862 48.563 47.2089 47.7412 47.2089 46.7248Z" fill="#5A5756"/>
<path d="M19.6448 17.0176H15.6677V24.0613H19.6448V17.0176Z" fill="#2E79BE"/>
<path d="M25.6192 37.6081H9.69447C8.97935 37.6081 8.39807 37.0302 8.39807 36.3117V17.0175C8.39807 16.3007 8.97935 15.7202 9.69447 15.7202H25.6192C26.336 15.7202 26.9153 16.3009 26.9153 17.0175V36.312C26.9153 37.0302 26.336 37.6081 25.6192 37.6081ZM10.9906 35.0156H24.3217V18.315H10.9906V35.0156Z" fill="#5A5756"/>
<path d="M40.7784 23.6787H36.8015V28.2914H40.7784V23.6787Z" fill="#2E79BE"/>
<path d="M46.7511 37.608H30.8253C30.1087 37.608 29.5294 37.0301 29.5294 36.3116V23.6786C29.5294 22.9621 30.1087 22.3813 30.8253 22.3813H46.7511C47.4668 22.3813 48.0461 22.9621 48.0461 23.6786V36.3119C48.0461 37.0301 47.4665 37.608 46.7511 37.608ZM32.1219 35.0155H45.4539V24.9758H32.1219V35.0155Z" fill="#5A5756"/>
<path d="M48.5842 21.6825C47.8677 21.6825 47.2887 21.1013 47.2887 20.3861V16.3981L39.055 12.4481L30.8224 16.3981V20.3861C30.8224 21.1013 30.2445 21.6825 29.5266 21.6825C28.8098 21.6825 28.2285 21.1013 28.2285 20.3861V15.5827C28.2285 15.0843 28.515 14.631 28.9666 14.4129L38.4958 9.84134C38.8506 9.66942 39.2614 9.66942 39.6164 9.84134L49.1459 14.4129C49.5967 14.631 49.8829 15.0841 49.8829 15.5827V20.3861C49.8829 21.1013 49.3022 21.6825 48.5842 21.6825Z" fill="#2E79BE"/>
<path d="M39.0547 11.807C38.3396 11.807 37.7583 11.2263 37.7583 10.5109V5.45691C37.7583 4.74039 38.3396 4.15967 39.0547 4.15967C39.7723 4.15967 40.3536 4.74039 40.3536 5.45691V10.5109C40.3536 11.226 39.7723 11.807 39.0547 11.807Z" fill="#2E79BE"/>
</svg>
