<svg width="22" height="25" viewBox="0 0 22 25" fill="none" xmlns="http://www.w3.org/2000/svg">
<path d="M19.1667 3.31211H14.29C13.8 1.92011 12.5167 0.912109 11 0.912109C9.48333 0.912109 8.2 1.92011 7.71 3.31211H2.83333C2.21449 3.31211 1.621 3.56497 1.18342 4.01505C0.745833 4.46514 0.5 5.07559 0.5 5.71211V22.5121C0.5 23.1486 0.745833 23.7591 1.18342 24.2092C1.621 24.6593 2.21449 24.9121 2.83333 24.9121H19.1667C19.7855 24.9121 20.379 24.6593 20.8166 24.2092C21.2542 23.7591 21.5 23.1486 21.5 22.5121V5.71211C21.5 5.07559 21.2542 4.46514 20.8166 4.01505C20.379 3.56497 19.7855 3.31211 19.1667 3.31211ZM11 3.31211C11.3094 3.31211 11.6062 3.43854 11.825 3.66358C12.0437 3.88862 12.1667 4.19385 12.1667 4.51211C12.1667 4.83037 12.0437 5.13559 11.825 5.36064C11.6062 5.58568 11.3094 5.71211 11 5.71211C10.6906 5.71211 10.3938 5.58568 10.175 5.36064C9.95625 5.13559 9.83333 4.83037 9.83333 4.51211C9.83333 4.19385 9.95625 3.88862 10.175 3.66358C10.3938 3.43854 10.6906 3.31211 11 3.31211ZM5.16667 8.11211H16.8333V5.71211H19.1667V22.5121H2.83333V5.71211H5.16667V8.11211Z" fill="black"/>
</svg>
