<svg width="47" height="42" viewBox="0 0 47 42" fill="none" xmlns="http://www.w3.org/2000/svg">
<path d="M42.2499 29.2458V4.24577H4.74992V29.2458H42.2499ZM42.2499 0.0791016C43.355 0.0791016 44.4148 0.518088 45.1962 1.29949C45.9776 2.08089 46.4166 3.1407 46.4166 4.24577V29.2458C46.4166 30.3508 45.9776 31.4106 45.1962 32.192C44.4148 32.9734 43.355 33.4124 42.2499 33.4124H27.6666V37.5791H31.8333V41.7458H15.1666V37.5791H19.3333V33.4124H4.74992C2.43742 33.4124 0.583252 31.5374 0.583252 29.2458V4.24577C0.583252 1.93327 2.43742 0.0791016 4.74992 0.0791016H42.2499ZM8.91658 8.41244H27.6666V18.8291H8.91658V8.41244ZM29.7499 8.41244H38.0833V12.5791H29.7499V8.41244ZM38.0833 14.6624V25.0791H29.7499V14.6624H38.0833ZM8.91658 20.9124H17.2499V25.0791H8.91658V20.9124ZM19.3333 20.9124H27.6666V25.0791H19.3333V20.9124Z" fill="black"/>
</svg>
