<svg width="56" height="57" viewBox="0 0 56 57" fill="none" xmlns="http://www.w3.org/2000/svg">
<path d="M5.25134 27.6314C5.25134 14.9759 15.5125 4.71533 28.1677 4.71533C40.8234 4.71533 51.082 14.9762 51.082 27.6314C51.082 40.2865 40.8234 50.5477 28.1677 50.5477C15.5125 50.5477 5.25134 40.2865 5.25134 27.6314Z" fill="#F1F0F0"/>
<path d="M35.4202 25.2925H41.7056L50.2882 33.8748V44.1502H30.1016L35.4202 25.2925Z" fill="white"/>
<path d="M29.2641 44.7831C29.0659 44.5205 29.0014 44.182 29.0902 43.8653L34.4096 25.0076C34.5362 24.5554 34.9495 24.2432 35.4202 24.2432H41.7067C41.9851 24.2432 42.2522 24.3538 42.449 24.5503L51.0302 33.1323C51.2281 33.3292 51.3382 33.5982 51.3382 33.8763V44.1503C51.3382 44.7305 50.8678 45.2 50.2871 45.2H30.1002C29.7723 45.2 29.4623 45.0472 29.2641 44.7831ZM49.2368 34.3117L41.2724 26.3448H36.2145L31.4892 43.0981H49.2371V34.3117H49.2368Z" fill="#6B6767"/>
<path d="M35.5415 19.6724H6.04822V40.7032H35.5415V19.6724Z" fill="white"/>
<path d="M4.99768 40.7035V19.6724C4.99768 19.0911 5.46752 18.6216 6.04824 18.6216H35.5415C36.1208 18.6216 36.592 19.0911 36.592 19.6724V40.7032C36.592 41.2834 36.1208 41.7541 35.5415 41.7541H6.04824C5.46752 41.7543 4.99768 41.2837 4.99768 40.7035ZM34.4901 20.7219H7.0974V39.6535H34.4901V20.7219Z" fill="#6B6767"/>
<path d="M12.0912 26.1627H29.4972C30.0768 26.1627 30.5483 25.6904 30.5483 25.1116C30.5483 24.53 30.0768 24.061 29.4972 24.061H12.0912C11.5105 24.061 11.0404 24.5303 11.0404 25.1116C11.0401 25.6904 11.5102 26.1627 12.0912 26.1627Z" fill="#6B6767"/>
<path d="M12.0912 31.2392H29.4972C30.0768 31.2392 30.5483 30.7679 30.5483 30.1892C30.5483 29.609 30.0768 29.1372 29.4972 29.1372H12.0912C11.5105 29.1372 11.0404 29.609 11.0404 30.1892C11.0401 30.7679 11.5102 31.2392 12.0912 31.2392Z" fill="#6B6767"/>
<path d="M12.0912 36.3153H29.4972C30.0768 36.3153 30.5483 35.8444 30.5483 35.2659C30.5483 34.6857 30.0768 34.2134 29.4972 34.2134H12.0912C11.5105 34.2134 11.0404 34.6857 11.0404 35.2659C11.0401 35.8444 11.5102 36.3153 12.0912 36.3153Z" fill="#6B6767"/>
<path d="M51.8596 40.5239H4.47632V45.1176H51.8596V40.5239Z" fill="white"/>
<path d="M3.42603 45.1175V40.5224C3.42603 39.9442 3.89615 39.4722 4.47631 39.4722H51.8596C52.4386 39.4722 52.9104 39.9442 52.9104 40.5224V45.1175C52.9104 45.6968 52.4386 46.1675 51.8596 46.1675H4.47631C3.89615 46.1675 3.42603 45.6971 3.42603 45.1175ZM50.8082 41.5752H5.52659V44.067H50.8082V41.5752Z" fill="#6B6767"/>
<path d="M32.3993 47.8979C32.3993 45.4267 34.4002 43.4238 36.8723 43.4238C39.3419 43.4238 41.3431 45.4264 41.3431 47.8979C41.3431 50.3656 39.3422 52.3704 36.8723 52.3704C34.3999 52.3704 32.3993 50.3659 32.3993 47.8979Z" fill="white"/>
<path d="M31.3477 47.8978C31.3477 44.8514 33.8254 42.3726 36.8712 42.3726C39.9159 42.3726 42.3939 44.8517 42.3939 47.8978C42.3939 50.9431 39.9159 53.4197 36.8712 53.4197C33.8254 53.4197 31.3477 50.9431 31.3477 47.8978ZM33.4505 47.8978C33.4505 49.783 34.9849 51.3177 36.8712 51.3177C38.757 51.3177 40.2914 49.7833 40.2914 47.8978C40.2914 46.0106 38.7573 44.4742 36.8712 44.4742C34.9849 44.4745 33.4505 46.0106 33.4505 47.8978Z" fill="#6B6767"/>
<path d="M35.0574 47.8979C35.0574 46.8958 35.8699 46.0835 36.8715 46.0835C37.8725 46.0835 38.6853 46.8958 38.6853 47.8979C38.6853 48.8997 37.8728 49.7095 36.8715 49.7095C35.8699 49.7095 35.0574 48.8997 35.0574 47.8979Z" fill="white"/>
<path d="M34.0073 47.8976C34.0073 46.3176 35.2925 45.0332 36.8712 45.0332C38.4492 45.0332 39.7361 46.3178 39.7361 47.8976C39.7361 49.4771 38.449 50.7612 36.8712 50.7612C35.2925 50.7612 34.0073 49.4771 34.0073 47.8976ZM36.1082 47.8976C36.1082 48.3179 36.4509 48.6581 36.8712 48.6581C37.2914 48.6581 37.6344 48.3179 37.6344 47.8976C37.6344 47.4756 37.2914 47.134 36.8712 47.134C36.4509 47.134 36.1082 47.4756 36.1082 47.8976Z" fill="#6B6767"/>
<path d="M7.74023 47.8979C7.74023 45.4267 9.74111 43.4238 12.213 43.4238C14.6831 43.4238 16.6854 45.4264 16.6854 47.8979C16.6854 50.3656 14.6831 52.3704 12.213 52.3704C9.74083 52.3704 7.74023 50.3659 7.74023 47.8979Z" fill="white"/>
<path d="M6.6886 47.8978C6.6886 44.8514 9.1666 42.3726 12.2122 42.3726C15.2586 42.3726 17.7349 44.8517 17.7349 47.8978C17.7349 50.9431 15.2586 53.4197 12.2122 53.4197C9.1666 53.4197 6.6886 50.9431 6.6886 47.8978ZM8.79084 47.8978C8.79084 49.783 10.3255 51.3177 12.2119 51.3177C14.0991 51.3177 15.6335 49.7833 15.6335 47.8978C15.6335 46.0106 14.0991 44.4742 12.2119 44.4742C10.3255 44.4745 8.79084 46.0106 8.79084 47.8978Z" fill="#6B6767"/>
<path d="M10.3997 47.8979C10.3997 46.8958 11.2111 46.0835 12.2127 46.0835C13.2137 46.0835 14.0262 46.8958 14.0262 47.8979C14.0262 48.8997 13.2137 49.7095 12.2127 49.7095C11.2111 49.7095 10.3997 48.8997 10.3997 47.8979Z" fill="white"/>
<path d="M9.34802 47.8976C9.34802 46.3176 10.6341 45.0332 12.2121 45.0332C13.7908 45.0332 15.0771 46.3178 15.0771 47.8976C15.0771 49.4771 13.7908 50.7612 12.2121 50.7612C10.6341 50.7612 9.34802 49.4771 9.34802 47.8976ZM11.4503 47.8976C11.4503 48.3179 11.7919 48.6581 12.2119 48.6581C12.6327 48.6581 12.9743 48.3179 12.9743 47.8976C12.9743 47.4756 12.6327 47.134 12.2119 47.134C11.7919 47.1343 11.4503 47.4756 11.4503 47.8976Z" fill="#6B6767"/>
<path d="M13.424 14.6699C13.6925 14.6699 13.9613 14.5696 14.1674 14.3624C15.5564 12.9742 17.4014 12.2109 19.3644 12.2109C21.3292 12.2109 23.1758 12.9742 24.564 14.3624C24.9748 14.7726 25.6392 14.7726 26.05 14.3624C26.4594 13.9542 26.4594 13.2881 26.05 12.8765C24.2644 11.0926 21.8912 10.1104 19.3644 10.1104C16.84 10.1104 14.4664 11.0926 12.6814 12.8765C12.2709 13.2881 12.2709 13.9542 12.6814 14.3624C12.8883 14.5696 13.1552 14.6699 13.424 14.6699Z" fill="#2E79BE"/>
<path d="M9.05712 10.3032C9.32564 10.3032 9.59416 10.2005 9.80052 9.99606C15.0749 4.72338 23.6563 4.72338 28.9312 9.99606C29.3409 10.4063 30.0064 10.4063 30.4169 9.99606C30.8274 9.58614 30.8274 8.9217 30.4169 8.5101C24.3252 2.4159 14.4096 2.4159 8.31428 8.5101C7.90436 8.92142 7.90436 9.58586 8.31428 9.99606C8.52148 10.2005 8.78972 10.3032 9.05712 10.3032Z" fill="#2E79BE"/>
</svg>
