<svg width="56" height="57" viewBox="0 0 56 57" fill="none" xmlns="http://www.w3.org/2000/svg">
<path d="M18.7239 7.98779V20.59L24.9676 17.5324L31.213 20.59V7.98779H18.7239Z" fill="#2E79BE"/>
<path d="M30.478 44.9697H4.81938C4.17734 44.9697 3.6571 44.4509 3.6571 43.8089V7.98762C3.6571 7.34586 4.17734 6.82422 4.81938 6.82422H45.1161C45.4278 6.82422 45.7251 6.94966 45.9433 7.1703C46.16 7.38954 46.2821 7.68886 46.2779 8.00106C46.2695 8.67362 46.2779 26.9097 46.2779 27.0934C46.2779 27.7338 45.7579 28.2568 45.1161 28.2568C44.4738 28.2568 43.9558 27.7352 43.9558 27.0934C43.9558 26.4458 43.9488 13.239 43.9519 9.1485H5.9825V42.6466H30.478C31.1195 42.6466 31.6395 43.1674 31.6395 43.8094C31.6395 44.4515 31.1195 44.9697 30.478 44.9697Z" fill="#3E3836"/>
<path d="M39.893 50.407C37.0742 50.407 34.4229 49.3108 32.431 47.3166C28.315 43.2003 28.315 36.5047 32.431 32.3879C34.4229 30.3937 37.0742 29.2964 39.893 29.2964C42.7143 29.2964 45.3645 30.3937 47.3575 32.3879C51.4727 36.5047 51.4727 43.2003 47.3575 47.3166C45.3645 49.3108 42.7143 50.407 39.893 50.407ZM39.893 31.6198C37.6953 31.6198 35.6269 32.4747 34.0732 34.0315C30.8627 37.2414 30.8627 42.4645 34.0732 45.6716C35.6269 47.2267 37.6956 48.0847 39.893 48.0847C42.0918 48.0847 44.1588 47.2267 45.7156 45.6716C48.9252 42.4645 48.9252 37.2414 45.7156 34.0315C44.1588 32.4747 42.0916 31.6198 39.893 31.6198Z" fill="#3E3836"/>
<path d="M49.6826 52.7802C48.8802 52.7802 48.0732 52.473 47.4617 51.861L44.3162 48.7149C43.8626 48.2618 43.8626 47.5268 44.3162 47.0727C44.7692 46.6185 45.5045 46.6185 45.9598 47.0727L49.1061 50.2176C49.4234 50.5349 49.9414 50.5349 50.2589 50.2176C50.4151 50.0631 50.4974 49.8587 50.4974 49.6417C50.4974 49.4224 50.4151 49.2192 50.2589 49.064L47.1133 45.9188C46.6606 45.4632 46.6606 44.7296 47.1133 44.2738C47.5658 43.8202 48.3036 43.8202 48.755 44.2738L51.9014 47.4221C52.4941 48.0138 52.8206 48.802 52.8206 49.6417C52.8206 50.4811 52.4941 51.2685 51.9014 51.861C51.2915 52.473 50.4865 52.7802 49.6826 52.7802Z" fill="#3E3836"/>
<path d="M44.1465 35.5979C41.7967 33.2493 37.9887 33.2493 35.6409 35.5979C33.2906 37.9488 33.2906 41.7565 35.6409 44.1051C37.9887 46.4555 41.7967 46.4555 44.1465 44.1051C46.4946 41.7568 46.4946 37.9488 44.1465 35.5979Z" fill="#2E79BE"/>
</svg>
