<svg width="56" height="57" viewBox="0 0 56 57" fill="none" xmlns="http://www.w3.org/2000/svg">
<path d="M49.0541 18.5813H38.1159C37.4173 18.5813 36.8508 18.0151 36.8508 17.3159V6.37803C36.8508 5.86507 37.1591 5.40139 37.6309 5.20679C38.1055 5.01079 38.6507 5.11915 39.0124 5.48091L49.9495 16.4191C50.3132 16.7806 50.421 17.3271 50.2245 17.8009C50.0282 18.2713 49.567 18.5813 49.0541 18.5813ZM39.3826 16.0495H45.9953L39.3826 9.43507V16.0495Z" fill="#5A5756"/>
<path d="M49.0546 53.4769H8.42661C7.72717 53.4769 7.16101 52.9113 7.16101 52.2124V6.37805C7.16101 5.67693 7.72689 5.10938 8.42661 5.10938H38.1156C38.451 5.10938 38.7747 5.24406 39.0121 5.47926L49.9492 16.4191C50.1878 16.6571 50.3208 16.98 50.3208 17.3137V52.2121C50.321 52.9113 49.7535 53.4769 49.0546 53.4769ZM9.69389 50.9443H47.7876V17.8382L37.5928 7.64281H9.69389V50.9443Z" fill="#5A5756"/>
<path d="M21.1946 31.8733C20.8703 31.8733 20.5469 31.7504 20.2994 31.5023L16.1675 27.3715C15.6727 26.8756 15.6727 26.0745 16.1675 25.5784C16.6628 25.0853 17.465 25.0853 17.9592 25.5784L21.1946 28.8152L28.0241 21.9876C28.5191 21.4918 29.3216 21.4918 29.8147 21.9876C30.3105 22.4827 30.3105 23.2821 29.8147 23.7782L22.0911 31.5023C21.8433 31.7501 21.518 31.8733 21.1946 31.8733Z" fill="#2E79BE"/>
<path d="M40.4191 26.6645H33.9494C33.2525 26.6645 32.6838 26.0969 32.6838 25.3967C32.6838 24.6975 33.2522 24.1313 33.9494 24.1313H40.4191C41.1183 24.1313 41.6853 24.6975 41.6853 25.3967C41.6856 26.0969 41.1186 26.6645 40.4191 26.6645Z" fill="#5A5756"/>
<path d="M40.4192 30.6153H29.6389C28.9395 30.6153 28.3713 30.0508 28.3713 29.3497C28.3713 28.6497 28.9395 28.0835 29.6389 28.0835H40.4192C41.1183 28.0835 41.6853 28.6494 41.6853 29.3497C41.6856 30.0508 41.1186 30.6153 40.4192 30.6153Z" fill="#5A5756"/>
<path d="M21.1946 46.2476C20.8703 46.2476 20.5469 46.1246 20.2994 45.8746L16.1675 41.7424C15.6727 41.2496 15.6727 40.4485 16.1675 39.9526C16.6628 39.4592 17.465 39.4592 17.9592 39.9526L21.1946 43.1894L28.0241 36.3588C28.5191 35.8654 29.3216 35.8654 29.8147 36.3588C30.3105 36.8547 30.3105 37.656 29.8147 38.1494L22.0911 45.8746C21.8433 46.1243 21.518 46.2476 21.1946 46.2476Z" fill="#2E79BE"/>
<path d="M40.4191 41.0359H33.9494C33.2525 41.0359 32.6838 40.4683 32.6838 39.7708C32.6838 39.0703 33.2522 38.5044 33.9494 38.5044H40.4191C41.1183 38.5044 41.6853 39.0703 41.6853 39.7708C41.6856 40.4683 41.1186 41.0359 40.4191 41.0359Z" fill="#5A5756"/>
<path d="M40.4192 44.9892H29.6389C28.9395 44.9892 28.3713 44.4217 28.3713 43.7214C28.3713 43.0222 28.9395 42.4561 29.6389 42.4561H40.4192C41.1183 42.4561 41.6853 43.0219 41.6853 43.7214C41.6856 44.4217 41.1186 44.9892 40.4192 44.9892Z" fill="#5A5756"/>
</svg>
