<svg width="56" height="57" viewBox="0 0 56 57" fill="none" xmlns="http://www.w3.org/2000/svg">
<path d="M29.2496 50.8773C28.5204 50.8773 27.9319 50.289 27.9319 49.5596C27.9319 48.8305 28.5207 48.2391 29.2496 48.2391C39.992 48.2391 48.7306 39.4984 48.7306 28.7578C48.7306 28.029 49.3219 27.4365 50.0502 27.4365C50.7793 27.4365 51.3704 28.029 51.3704 28.7578C51.3704 40.9541 41.4478 50.8773 29.2496 50.8773Z" fill="#2E79BE"/>
<path d="M8.44867 30.0772C7.71899 30.0772 7.12903 29.4861 7.12903 28.7578C7.12903 16.5594 17.0528 6.63672 29.2496 6.63672C29.9787 6.63672 30.5706 7.2264 30.5706 7.9558C30.5706 8.68464 29.9787 9.27488 29.2496 9.27488C18.5088 9.27488 9.76859 18.0154 9.76859 28.7578C9.76859 29.4858 9.17751 30.0772 8.44867 30.0772Z" fill="#2E79BE"/>
<path d="M27.8401 12.5365C27.5027 12.5365 27.1647 12.4072 26.9071 12.1499C26.3905 11.6349 26.3905 10.7997 26.9071 10.282L29.1471 8.04254L26.9071 5.80366C26.3905 5.28874 26.3905 4.45322 26.9071 3.93578C27.4217 3.4231 28.2592 3.4231 28.7741 3.93578L31.9482 7.10986C32.4631 7.62618 32.4631 8.4617 31.9482 8.9769L28.7741 12.1499C28.5163 12.4072 28.1777 12.5365 27.8401 12.5365Z" fill="#2E79BE"/>
<path d="M30.6597 53.9654C30.322 53.9654 29.9846 53.8338 29.7279 53.5784L26.5524 50.4041C26.0389 49.8892 26.0389 49.0534 26.5524 48.5356L29.7279 45.3621C30.2417 44.85 31.0786 44.85 31.5938 45.3621C32.109 45.879 32.109 46.7145 31.5938 47.232L29.3538 49.4711L31.5938 51.7097C32.109 52.2255 32.109 53.0602 31.5938 53.5784C31.3362 53.8338 30.9974 53.9654 30.6597 53.9654Z" fill="#2E79BE"/>
<path d="M29.2509 42.6229C29.0225 42.6229 28.794 42.5655 28.5901 42.4465L17.7247 36.1742C17.3171 35.9376 17.0651 35.5014 17.0651 35.0298V22.483C17.0651 22.0124 17.3171 21.5764 17.7247 21.3412L28.5901 15.067C28.9975 14.8332 29.5007 14.8332 29.9098 15.067L40.7735 21.3412C41.1826 21.5764 41.4349 22.0124 41.4349 22.483V35.0301C41.4349 35.5016 41.1826 35.9379 40.7735 36.1745L29.9098 42.4468C29.7071 42.5655 29.478 42.6229 29.2509 42.6229ZM19.7043 34.2694L29.2509 39.7784L38.7933 34.2694V23.2463L29.2509 17.737L19.7043 23.2463V34.2694Z" fill="#5A5756"/>
<path d="M29.2496 31.0124C29.0211 31.0124 28.794 30.9547 28.5902 30.8363L17.7259 24.5643C17.0953 24.2003 16.8781 23.3919 17.2412 22.7589C17.6075 22.1266 18.4144 21.9113 19.045 22.2778L29.2496 28.1682L39.4547 22.2778C40.0881 21.9113 40.8923 22.128 41.2588 22.7589C41.6228 23.3919 41.4055 24.2003 40.7733 24.5643L29.9095 30.8366C29.7054 30.9547 29.4767 31.0124 29.2496 31.0124Z" fill="#5A5756"/>
<path d="M29.2495 41.4304C28.5204 41.4304 27.9302 40.8393 27.9302 40.1113V29.4366C27.9302 28.7058 28.5204 28.1147 29.2495 28.1147C29.9787 28.1147 30.5686 28.7058 30.5686 29.4366V40.1113C30.5686 40.8391 29.9784 41.4304 29.2495 41.4304Z" fill="#5A5756"/>
</svg>
