<svg width="27" height="27" viewBox="0 0 27 27" fill="none" xmlns="http://www.w3.org/2000/svg">
<path d="M13.3333 0.026123C6 0.026123 0 6.02612 0 13.3595C0 20.6928 6 26.6928 13.3333 26.6928C20.6667 26.6928 26.6667 20.6928 26.6667 13.3595C26.6667 6.02612 20.6667 0.026123 13.3333 0.026123ZM13.3333 24.0261C7.45333 24.0261 2.66667 19.2395 2.66667 13.3595C2.66667 7.47946 7.45333 2.69279 13.3333 2.69279C19.2133 2.69279 24 7.47946 24 13.3595C24 19.2395 19.2133 24.0261 13.3333 24.0261ZM19.4533 7.46612L10.6667 16.2528L7.21333 12.8128L5.33333 14.6928L10.6667 20.0261L21.3333 9.35946L19.4533 7.46612Z" fill="#97282C" />
</svg>
