<svg width="32" height="30" viewBox="0 0 32 30" fill="none" xmlns="http://www.w3.org/2000/svg">
<path fill-rule="evenodd" clip-rule="evenodd" d="M21.3983 18.1431C24.5319 13.612 23.9242 7.34758 19.7511 3.51084C15.188 -0.68452 8.08972 -0.388482 3.89674 4.17207C-0.296235 8.73263 0.00385999 15.8307 4.56701 20.0261C8.71525 23.84 14.9585 23.9421 19.2097 20.5029C19.2154 20.5085 19.2213 20.514 19.2272 20.5195L28.5673 29.1067C28.9641 29.4715 29.5813 29.4458 29.9459 29.0492L30.8041 28.1157C31.1687 27.7192 31.1426 27.1019 30.7458 26.7371L21.4058 18.1499C21.4033 18.1476 21.4008 18.1453 21.3983 18.1431ZM17.3085 6.16764C20.4035 9.0132 20.607 13.8275 17.7631 16.9208C14.9191 20.014 10.1047 20.2148 7.00967 17.3693C3.91466 14.5237 3.71112 9.70937 6.55505 6.61613C9.39898 3.52288 14.2134 3.32209 17.3085 6.16764Z" fill="white"/>
</svg>
