<svg width="56" height="57" viewBox="0 0 56 57" fill="none" xmlns="http://www.w3.org/2000/svg">
<path d="M52.4497 29.5998C52.4497 16.5588 41.876 5.98486 28.8325 5.98486C15.7884 5.98486 5.21619 16.5588 5.21619 29.5998C5.21619 42.6441 15.7884 53.2175 28.8325 53.2175C41.8763 53.2172 52.4497 42.6439 52.4497 29.5998Z" fill="#F0EFEF"/>
<path d="M53.1639 40.496C53.1639 43.2887 50.9018 45.5509 48.111 45.5509H9.55361C6.76313 45.5509 4.50073 43.2887 4.50073 40.496C4.50073 37.7064 6.76313 35.4448 9.55361 35.4448H48.111C50.9018 35.4448 53.1639 37.7064 53.1639 40.496Z" fill="white"/>
<path d="M48.1121 46.6235H9.55418C6.17542 46.6235 3.42554 43.8756 3.42554 40.4954C3.42554 37.118 6.17542 34.3701 9.55418 34.3701H48.1124C51.4909 34.3701 54.2383 37.118 54.2383 40.4954C54.238 43.8756 51.4909 46.6235 48.1121 46.6235ZM9.55418 36.5205C7.3615 36.5205 5.57622 38.3038 5.57622 40.4954C5.57622 42.6912 7.3615 44.475 9.55418 44.475H48.1124C50.3048 44.475 52.0881 42.6912 52.0881 40.4954C52.0881 38.3038 50.3048 36.5205 48.1124 36.5205H9.55418Z" fill="#6B6666"/>
<path d="M21.2254 40.4961C21.2254 39.4705 20.3918 38.6372 19.3642 38.6372C18.3349 38.6372 17.5031 39.4705 17.5031 40.4961C17.5031 41.5246 18.3352 42.3578 19.3642 42.3578C20.3918 42.3578 21.2254 41.5243 21.2254 40.4961Z" fill="white"/>
<path d="M19.364 43.434C17.7445 43.434 16.4282 42.1172 16.4282 40.496C16.4282 38.8793 17.7448 37.561 19.364 37.561C20.9833 37.561 22.2995 38.8793 22.2995 40.496C22.2995 42.1172 20.9833 43.434 19.364 43.434ZM19.364 39.7114C18.9303 39.7114 18.5764 40.0645 18.5764 40.496C18.5764 40.9306 18.9303 41.2842 19.364 41.2842C19.7972 41.2842 20.15 40.9303 20.15 40.496C20.15 40.0645 19.7972 39.7114 19.364 39.7114Z" fill="#6B6666"/>
<path d="M30.6939 40.4961C30.6939 39.4705 29.8606 38.6372 28.8333 38.6372C27.8054 38.6372 26.9705 39.4705 26.9705 40.4961C26.9705 41.5246 27.8054 42.3578 28.8333 42.3578C29.8609 42.3578 30.6939 41.5243 30.6939 40.4961Z" fill="white"/>
<path d="M28.8328 43.434C27.2136 43.434 25.8959 42.1172 25.8959 40.496C25.8959 38.8793 27.2136 37.561 28.8328 37.561C30.4523 37.561 31.7692 38.8793 31.7692 40.496C31.7692 42.1172 30.4523 43.434 28.8328 43.434ZM28.8328 39.7114C28.3996 39.7114 28.0454 40.0645 28.0454 40.496C28.0454 40.9306 28.3996 41.2842 28.8328 41.2842C29.2665 41.2842 29.6188 40.9303 29.6188 40.496C29.6185 40.0645 29.2662 39.7114 28.8328 39.7114Z" fill="#6B6666"/>
<path d="M40.1626 40.4961C40.1626 39.4705 39.3293 38.6372 38.3012 38.6372C37.2739 38.6372 36.4403 39.4705 36.4403 40.4961C36.4403 41.5246 37.2739 42.3578 38.3012 42.3578C39.3296 42.3578 40.1626 41.5243 40.1626 40.4961Z" fill="white"/>
<path d="M38.3012 43.434C36.6825 43.434 35.366 42.1172 35.366 40.496C35.366 38.8793 36.6825 37.561 38.3012 37.561C39.9213 37.561 41.2378 38.8793 41.2378 40.496C41.2378 42.1172 39.9213 43.434 38.3012 43.434ZM38.3012 39.7114C37.8683 39.7114 37.515 40.0645 37.515 40.496C37.515 40.9306 37.8683 41.2842 38.3012 41.2842C38.7349 41.2842 39.088 40.9303 39.088 40.496C39.088 40.0645 38.7349 39.7114 38.3012 39.7114Z" fill="#6B6666"/>
<path d="M11.7561 40.4961C11.7561 39.4705 10.9245 38.6372 9.89665 38.6372C8.86569 38.6372 8.03381 39.4705 8.03381 40.4961C8.03381 41.5246 8.86569 42.3578 9.89665 42.3578C10.9245 42.3578 11.7561 41.5243 11.7561 40.4961Z" fill="white"/>
<path d="M9.89611 43.434C8.27575 43.434 6.95947 42.1172 6.95947 40.496C6.95947 38.8793 8.27575 37.561 9.89611 37.561C11.5142 37.561 12.8308 38.8793 12.8308 40.496C12.8308 42.1172 11.5142 43.434 9.89611 43.434ZM9.89611 39.7114C9.46211 39.7114 9.10875 40.0645 9.10875 40.496C9.10875 40.9306 9.46183 41.2842 9.89611 41.2842C10.3282 41.2842 10.6812 40.9303 10.6812 40.496C10.681 40.0645 10.3282 39.7114 9.89611 39.7114Z" fill="#6B6666"/>
<path d="M49.6317 40.4961C49.6317 39.4705 48.7987 38.6372 47.772 38.6372C46.7424 38.6372 45.9094 39.4705 45.9094 40.4961C45.9094 41.5246 46.7427 42.3578 47.772 42.3578C48.7987 42.3578 49.6317 41.5243 49.6317 40.4961Z" fill="white"/>
<path d="M47.771 43.434C46.151 43.434 44.835 42.1172 44.835 40.496C44.835 38.8793 46.151 37.561 47.771 37.561C49.3897 37.561 50.7068 38.8793 50.7068 40.496C50.7071 42.1172 49.39 43.434 47.771 43.434ZM47.771 39.7114C47.337 39.7114 46.984 40.0645 46.984 40.496C46.984 40.9306 47.337 41.2842 47.771 41.2842C48.2042 41.2842 48.5564 40.9303 48.5564 40.496C48.5564 40.0645 48.2042 39.7114 47.771 39.7114Z" fill="#6B6666"/>
<path d="M26.0484 20.2358H11.8213V30.5984H26.0484V20.2358Z" fill="white"/>
<path d="M26.0484 31.6744H11.8213C11.2263 31.6744 10.7461 31.1934 10.7461 30.5984V20.2358C10.7461 19.6448 11.2266 19.1626 11.8213 19.1626H26.0484C26.6425 19.1626 27.1241 19.6448 27.1241 20.2358V30.5984C27.1241 31.1934 26.6425 31.6744 26.0484 31.6744ZM12.8957 29.524H24.9737V21.311H12.8957V29.524Z" fill="#6B6666"/>
<path d="M45.8447 20.2358H31.6171V30.5984H45.8447V20.2358Z" fill="white"/>
<path d="M45.8447 31.6744H31.6171C31.0221 31.6744 30.5416 31.1934 30.5416 30.5984V20.2358C30.5416 19.6448 31.0221 19.1626 31.6171 19.1626H45.8447C46.4383 19.1626 46.9199 19.6448 46.9199 20.2358V30.5984C46.9199 31.1934 46.4386 31.6744 45.8447 31.6744ZM32.6915 29.524H44.7693V21.311H32.6915V29.524Z" fill="#6B6666"/>
<path d="M29.5876 4.4585L35.4088 10.2797L29.5876 16.1009V12.9797H22.2552V7.57994H29.5876V4.4585Z" fill="#2E79BE"/>
<path d="M29.1755 17.0941C28.7739 16.9275 28.5127 16.5352 28.5127 16.1009V14.0549H22.2564C21.6625 14.0549 21.1809 13.5739 21.1809 12.9811V7.57995C21.1809 6.98579 21.6625 6.50447 22.2564 6.50447H28.5127V4.45851C28.5127 4.02451 28.7742 3.63279 29.1755 3.46647C29.5792 3.30043 30.0395 3.39227 30.3481 3.69831L36.169 9.52063C36.3703 9.72111 36.484 9.99383 36.484 10.2797C36.484 10.5656 36.3703 10.8389 36.169 11.0388L30.3481 16.8603C30.1406 17.0652 29.8662 17.1758 29.5868 17.1758C29.4487 17.1758 29.3093 17.1487 29.1755 17.0941ZM30.6628 7.05299V7.57995C30.6628 8.17131 30.1818 8.65487 29.5871 8.65487H23.3305V11.9062H29.5871C30.1818 11.9062 30.6628 12.3856 30.6628 12.9811V13.5061L33.8884 10.2797L30.6628 7.05299Z" fill="#2E79BE"/>
</svg>
