<svg width="17" height="20" viewBox="0 0 17 20" fill="none" xmlns="http://www.w3.org/2000/svg">
<path d="M8.5 13.5527C4.08 13.5527 0.5 15.3427 0.5 17.5527V19.5527H16.5V17.5527C16.5 15.3427 12.92 13.5527 8.5 13.5527ZM4.5 7.55273C4.5 8.6136 4.92143 9.63102 5.67157 10.3812C6.42172 11.1313 7.43913 11.5527 8.5 11.5527C9.56087 11.5527 10.5783 11.1313 11.3284 10.3812C12.0786 9.63102 12.5 8.6136 12.5 7.55273M8 0.552734C7.7 0.552734 7.5 0.762734 7.5 1.05273V4.05273H6.5V1.55273C6.5 1.55273 4.25 2.41273 4.25 5.30273C4.25 5.30273 3.5 5.44273 3.5 6.55273H13.5C13.45 5.44273 12.75 5.30273 12.75 5.30273C12.75 2.41273 10.5 1.55273 10.5 1.55273V4.05273H9.5V1.05273C9.5 0.762734 9.31 0.552734 9 0.552734H8Z" fill="black"/>
</svg>
